<?xml version="1.0" encoding="UTF-8" standalone="no"?>
<!-- Created with Inkscape (http://www.inkscape.org/) -->

<svg
   width="512"
   height="512"
   viewBox="0 0 512 512"
   version="1.1"
   id="svg5"
   xml:space="preserve"
   inkscape:version="1.2.2 (b0a8486541, 2022-12-01)"
   sodipodi:docname="sahwahita-bitmap.svg"
   xmlns:inkscape="http://www.inkscape.org/namespaces/inkscape"
   xmlns:sodipodi="http://sodipodi.sourceforge.net/DTD/sodipodi-0.dtd"
   xmlns="http://www.w3.org/2000/svg"
   xmlns:svg="http://www.w3.org/2000/svg"><sodipodi:namedview
     id="namedview7"
     pagecolor="#ffffff"
     bordercolor="#000000"
     borderopacity="0.25"
     inkscape:showpageshadow="2"
     inkscape:pageopacity="0.0"
     inkscape:pagecheckerboard="0"
     inkscape:deskcolor="#d1d1d1"
     inkscape:document-units="px"
     showgrid="false"
     showguides="true"
     inkscape:zoom="1"
     inkscape:cx="228"
     inkscape:cy="306"
     inkscape:window-width="1366"
     inkscape:window-height="731"
     inkscape:window-x="0"
     inkscape:window-y="0"
     inkscape:window-maximized="1"
     inkscape:current-layer="g293" /><defs
     id="defs2"><inkscape:path-effect
       effect="bend_path"
       id="path-effect1301"
       is_visible="true"
       lpeversion="1"
       bendpath="m 140.79678,396.77784 c 99.29734,57.32935 142.74869,57.45277 230.40644,0"
       prop_scale="1.1"
       scale_y_rel="false"
       vertical="false"
       hide_knot="false"
       bendpath-nodetypes="cc" /><inkscape:path-effect
       effect="bend_path"
       id="path-effect1299"
       is_visible="true"
       lpeversion="1"
       bendpath="M 140.79678,396.77784 H 371.20322"
       prop_scale="1"
       scale_y_rel="false"
       vertical="false"
       hide_knot="false" /><inkscape:path-effect
       effect="bend_path"
       id="path-effect1268"
       is_visible="true"
       lpeversion="1"
       bendpath="m 164.72307,93.223273 c 65.25944,-24.765608 117.79907,-23.779186 183.82484,0"
       prop_scale="1"
       scale_y_rel="false"
       vertical="false"
       hide_knot="false"
       bendpath-nodetypes="cc" /><inkscape:path-effect
       effect="bend_path"
       id="path-effect1246"
       is_visible="true"
       lpeversion="1"
       bendpath="m 164.72307,93.223273 c 65.25944,-24.765608 117.79907,-23.779186 183.82484,0"
       prop_scale="1"
       scale_y_rel="false"
       vertical="false"
       hide_knot="false"
       bendpath-nodetypes="cc" /><rect
       x="18.596154"
       y="-200.16923"
       width="128.69231"
       height="97.119231"
       id="rect1002" /><rect
       x="13.792308"
       y="-226.25385"
       width="93.346154"
       height="111.53846"
       id="rect996" /></defs><g
     inkscape:groupmode="layer"
     id="layer2"
     inkscape:label="Layer 2"><g
       id="g293"
       transform="translate(0,3.2402345)"><path
         style="fill:none;stroke:#000000;stroke-width:5;stroke-dasharray:none"
         d="m 0,184.15682 512,7e-5"
         id="path412" /><path
         style="fill:none;stroke:#000000;stroke-width:5;stroke-dasharray:none"
         d="M 2.4119e-6,322.88412 512,322.88419"
         id="path968" /><path
         id="path1245"
         style="color:#000000;fill:#000000;-inkscape-stroke:none"
         d="m 258,39.835938 c -88.35132,0 -164.15193,53.860686 -196.373047,130.523442 h 5.441406 C 98.970961,96.512333 172.41979,44.835938 258,44.835938 c 85.58021,0 159.02904,51.676395 190.93164,125.523442 h 5.44141 C 422.15193,93.696624 346.35132,39.835938 258,39.835938 Z M 61.626953,335.16016 C 93.84807,411.82345 169.64868,465.68555 258,465.68555 c 88.35132,0 164.15193,-53.8621 196.37305,-130.52539 h -5.43946 C 417.03148,409.00888 343.58103,460.68555 258,460.68555 c -85.58103,0 -159.031482,-51.67667 -190.933594,-125.52539 z" /><path
         id="circle1247"
         style="color:#000000;fill:#000000;-inkscape-stroke:none"
         d="m 258,14.712891 c -102.47279,0 -189.84025,64.803245 -223.376953,155.646489 h 5.359375 C 73.264493,82.31699 158.28277,19.712891 258,19.712891 c 99.71723,0 184.73551,62.604099 218.01758,150.646489 h 5.35937 C 447.84025,79.516136 360.47279,14.712891 258,14.712891 Z M 34.623047,335.16016 C 68.15975,426.00339 155.52721,490.80664 258,490.80664 c 102.47279,0 189.84025,-64.80325 223.37695,-155.64648 h -5.35937 C 442.73551,423.20254 357.71723,485.80664 258,485.80664 c -99.71723,0 -184.735507,-62.6041 -218.017578,-150.64648 z" /><g
         id="g946"
         inkscape:label="hand"><path
           d="m 227.37484,326.6435 v 10.61133 c 0,10.49845 -0.69894,12.88955 -4.33203,14.83398 -3.44474,1.84357 -4.05458,3.57637 -2.98047,8.4668 1.18318,5.38693 0.74306,6.18066 -3.53906,6.39844 -2.68844,0.13665 -5.94385,0.12304 -7.23438,-0.0293 -1.62412,-0.19179 -1.85053,2.43419 -0.73633,8.52734 0.88537,4.84163 1.13272,10.04682 0.54883,11.56836 -1.19708,3.11953 0.61045,3.29869 6.73242,0.66797 2.30819,-0.99188 3.20502,-1.87017 1.99414,-1.95117 -1.26539,-0.0848 -1.8366,-3.2707 -1.34375,-7.49219 0.73636,-6.30757 1.63968,-7.35052 6.39844,-7.39062 3.04751,-0.0257 7.90186,-1.89158 10.78711,-4.14844 l 5.24609,-4.10351 -5.77148,-0.0469 c -6.91808,-0.0559 -7.22541,-1.88995 -1.37109,-8.17383 3.06146,-3.2861 4.57421,-8.03253 4.97461,-15.60937 0.43768,-8.28241 0.12718,-9.68486 -1.29688,-5.86133 -2.24899,6.03853 -4.85217,4.49009 -2.88281,-1.71485 0.67925,-2.14016 1.75289,-3.58298 4.23633,-4.55273 z m 72.30859,0 -0.42773,4.38867 c -0.28089,2.88526 -0.75266,13.0354 -1.04883,22.55469 -0.46975,15.09984 -1.02228,17.30755 -4.33398,17.31055 -2.08778,0.002 -3.21132,0.94942 -2.49805,2.10351 0.71328,1.15411 0.29644,2.09766 -0.92578,2.09766 -3.57327,0 -2.55447,5.7195 1.28125,7.19141 3.28096,1.25902 6.88228,-1.76602 6.95508,-5.8418 0.0176,-0.98903 1.44852,-1.25416 3.17968,-0.58985 3.61659,1.3878 4.1731,-0.99289 0.97852,-4.1875 -2.53989,-2.53986 -2.81365,-25.39212 -0.44922,-37.49023 l 1.47266,-7.53711 z m -22.92773,21.41602 c -1.06987,0 -0.93934,0.61996 0.97851,1.85937 1.73115,1.11876 4.5638,1.98127 6.29492,1.91797 2.07541,-0.0761 1.71835,-0.72888 -1.04882,-1.91797 -2.8843,-1.23941 -5.15474,-1.85937 -6.22461,-1.85937 z m -32.76953,0.0195 c -0.72896,-0.03 -1.55904,0.10317 -2.31641,0.40625 -1.67393,0.66983 -1.17692,1.16677 1.26758,1.26758 2.21199,0.0911 3.45117,-0.40429 2.7539,-1.10157 -0.34864,-0.34858 -0.97611,-0.54225 -1.70507,-0.57226 z m 23.0039,0.008 c -1.14098,-0.0141 -2.35808,0.11094 -3.3789,0.37695 -2.04163,0.53202 -0.88027,1.00204 2.58203,1.04492 3.46228,0.0428 5.13355,-0.39199 3.71289,-0.96679 -0.71033,-0.28747 -1.77503,-0.44097 -2.91602,-0.45508 z m -20.73047,14.42187 c -4.48741,10e-6 -5.98041,4.10665 -1.57421,4.33008 1.4426,0.0731 0.49907,0.98557 -2.09766,2.0293 -2.59671,1.04378 -4.72266,2.97433 -4.72266,4.28906 0,1.31483 1.4704,1.82759 3.26563,1.13867 2.30824,-0.88571 3.93034,0.66085 5.54101,5.28125 1.94482,5.57895 2.56778,6.01159 4.26953,2.97071 1.45726,-2.60395 1.01103,-4.27973 -1.66211,-6.23438 -2.5547,-1.86804 -2.9287,-3.1225 -1.24023,-4.16601 4.16201,-2.57228 2.85785,-9.63867 -1.7793,-9.63868 z m 16.81836,2.25782 c -1.82948,-0.0949 -3.48279,0.0479 -4.64062,0.51172 -1.50456,0.60276 0.33318,1.17062 4.08398,1.26172 4.70691,0.11432 6.82031,1.17764 6.82031,3.43554 10e-6,1.7993 -0.94553,2.68789 -2.0996,1.97461 -1.15412,-0.71327 -2.09766,-0.29642 -2.09766,0.92578 0,1.22222 3.54127,2.14784 7.86914,2.05664 4.32787,-0.0911 6.68872,-0.6425 5.24609,-1.22461 -1.44259,-0.5821 -2.62304,-2.35288 -2.62304,-3.93554 0,-2.29936 -7.07015,-4.7211 -12.5586,-5.00586 z m -7.74804,10.75976 c -0.43256,-0.0548 -0.67774,0.24297 -0.67774,0.90039 0,1.19258 0.62903,2.79899 1.39844,3.56836 0.76939,0.76942 1.88808,0.91074 2.48437,0.31446 0.5963,-0.59627 -0.0327,-2.20071 -1.39843,-3.56641 -0.75285,-0.75284 -1.37409,-1.16197 -1.80664,-1.2168 z m 56.04492,1.66992 c -0.87057,0 -1.1148,2.44809 -0.54297,5.43946 0.69706,3.64646 1.57417,4.57286 2.66211,2.8125 1.77844,-2.87754 0.39829,-8.25196 -2.11914,-8.25196 z m -82.69727,2.91602 c -0.76473,0.0257 -1.30273,0.85759 -1.30273,2.20703 0,3.68584 1.25787,4.22887 3.05664,1.31836 0.664,-1.07436 0.24715,-2.5466 -0.92578,-3.27148 -0.29323,-0.18123 -0.57322,-0.26249 -0.82813,-0.25391 z m 79.01953,6.27344 c -0.2206,0.22062 -0.36952,0.9555 -0.41992,2.17773 -0.0911,2.21201 0.40431,3.45118 1.10156,2.75391 0.69719,-0.69729 0.77218,-2.50676 0.16602,-4.02149 -0.33491,-0.83695 -0.62705,-1.13077 -0.84766,-0.91015 z"
           style="fill:#000000;stroke-width:2.09836"
           id="path1443" /><path
           d="m 302.61439,113.07208 c -6.78024,0 -7.90393,1.93335 -17.67383,30.42578 -3.95732,11.54096 -8.37477,24.28879 -9.8164,28.32813 -1.44165,4.03933 -2.91432,8.50581 -3.27149,9.92578 -0.0919,0.36546 -0.53281,0.67248 -1.17969,0.95117 h 8.89453 c -1.04832,-1.67106 -0.4212,-4.76595 1.31641,-10.22266 1.76837,-5.55327 5.56518,-18.12376 8.4375,-27.93359 2.87231,-9.80981 6.3653,-18.7795 7.76367,-19.93359 1.39838,-1.15411 3.16404,-3.75182 3.92188,-5.77149 1.52757,-4.07107 3.26416,-4.49025 7.49609,-1.80859 2.28187,1.44596 2.33887,2.73386 0.29297,6.55664 -1.40027,2.61642 -2.9583,10.99826 -3.46289,18.62695 -0.50462,7.62869 -1.3145,15.05151 -1.80078,16.49414 -0.48626,1.44263 0.39265,2.62305 1.95312,2.62305 1.94889,0 3.22469,-4.10669 4.07813,-13.11523 0.68336,-7.21311 1.84288,-16.66796 2.57617,-21.01172 1.6054,-9.50956 -1.5107,-14.13477 -9.52539,-14.13477 z m -98.625,7.92773 c -0.252,0.16756 -0.49022,0.56301 -0.72461,1.17383 -1.82293,4.7505 0.43993,22.91268 5.07031,40.69532 2.17321,8.34598 3.95118,16.60898 3.95118,18.36132 0,0.60267 -0.82789,1.07355 -2.66407,1.47266 h 9.10938 l -1.92578,-6.42969 c -5.87212,-19.59939 -10.50982,-41.1229 -9.08203,-42.14648 0.85993,-0.61649 0.49724,-4.31293 -0.80469,-8.21485 -1.29233,-3.87311 -2.17369,-5.41477 -2.92969,-4.91211 z m 15.03516,0.92774 c -0.27364,0.0951 -0.44336,0.29741 -0.44336,0.58594 v 6.41992 c 0,2.95336 0.80582,4.87062 1.79101,4.26172 2.13518,-1.31962 12.17573,23.56474 14.31641,35.48242 0.82922,4.61639 1.86389,6.73707 2.29883,4.71289 1.15448,-5.37296 -13.59931,-50.25469 -16.89649,-51.40039 -0.41517,-0.14426 -0.79277,-0.15758 -1.0664,-0.0625 z m 79.98437,8.76953 c -0.29996,0.0459 -0.59585,0.15141 -0.86914,0.32031 -1.09319,0.67563 -1.43538,2.12361 -0.75977,3.2168 0.67561,1.09318 2.12362,1.43536 3.2168,0.75977 1.09319,-0.67563 1.4354,-2.12362 0.75977,-3.2168 -0.50671,-0.81989 -1.44778,-1.21778 -2.34766,-1.08008 z m -86.8457,5.45703 c -1.22221,0 -1.63905,0.94356 -0.92578,2.09766 0.71328,1.15409 1.71372,2.09765 2.22265,2.09765 0.50894,0 0.92383,-0.94356 0.92383,-2.09765 0,-1.1541 -0.99849,-2.09766 -2.2207,-2.09766 z m 7.46679,12.58985 c -1.73112,0 -3.14648,0.91337 -3.14648,2.03125 0,1.11785 1.41536,1.49048 3.14648,0.82617 1.73115,-0.6643 3.14844,-1.57963 3.14844,-2.03321 0,-0.45357 -1.41729,-0.82421 -3.14844,-0.82421 z m 85.51172,15.91406 c -0.68813,-0.68812 -2.79633,3.23983 -4.68554,8.72851 -1.89478,5.50479 -3.05114,8.03715 -5.10742,9.31641 h 5.52734 c 0.004,-1.23211 0.83299,-3.51833 2.5293,-8.32617 1.64317,-4.65715 2.42443,-9.03061 1.73632,-9.71875 z"
           style="fill:#000000;stroke-width:2.09836"
           id="path1405" /></g><g
         aria-label="SAHWAHITA"
         id="text1518"
         style="font-size:118.341px;font-family:'Bebas Neue';-inkscape-font-specification:'Bebas Neue, Normal';text-align:justify;letter-spacing:11.6022px;opacity:1;stroke-width:29.5852"
         inkscape:label="SAHWAHITA"><path
           d="m 25.749081,297.57187 q -9.46728,0 -14.319261,-5.32535 -4.8519811,-5.44368 -4.8519811,-15.50267 v -4.73364 H 18.885303 v 5.68037 q 0,8.04719 6.745437,8.04719 3.313549,0 4.970323,-1.89346 1.775115,-2.0118 1.775115,-6.39041 0,-5.20701 -2.36682,-9.11226 -2.36682,-4.02359 -8.757235,-9.58562 -8.047188,-7.10046 -11.242395,-12.78083 -3.1952071,-5.79871 -3.1952071,-13.01751 0,-9.8223 4.9703221,-15.14765 4.970322,-5.44368 14.437603,-5.44368 9.348939,0 14.082579,5.44368 4.851981,5.32535 4.851981,15.38433 v 3.43189 H 32.849542 v -4.26027 q 0,-4.26028 -1.656774,-6.15374 -1.656774,-2.01179 -4.851981,-2.01179 -6.508756,0 -6.508756,7.92884 0,4.49696 2.36682,8.40221 2.485161,3.90526 8.875576,9.46728 8.165529,7.10047 11.242395,12.89917 3.076866,5.79871 3.076866,13.60922 0,10.17733 -5.088663,15.62101 -4.970322,5.44369 -14.555944,5.44369 z"
           id="path1102" /><path
           d="m 74.155273,213.54976 h 17.63281 l 13.490877,82.8387 H 92.261447 l -2.36682,-16.4494 v 0.23668 H 75.102001 l -2.36682,16.21272 H 60.664399 Z m 14.200921,55.38359 -5.79871,-40.94599 h -0.236682 l -5.680368,40.94599 z"
           id="path1104" /><path
           d="m 123.15312,213.54976 h 13.01751 v 33.72718 h 13.96423 v -33.72718 h 13.01751 v 82.8387 h -13.01751 v -37.27742 h -13.96423 v 37.27742 h -13.01751 z"
           id="path1106" /><path
           d="m 181.38168,213.54976 h 12.54415 l 5.79871,63.66746 h 0.23668 l 6.15373,-63.66746 h 14.20092 l 6.15374,63.66746 h 0.23668 l 5.79871,-63.66746 h 11.24239 l -8.40221,82.8387 h -16.21272 l -5.91705,-55.85696 h -0.23668 l -5.91705,55.85696 H 189.7839 Z"
           id="path1108" /><path
           d="m 270.37882,213.54976 h 17.63281 l 13.49087,82.8387 h -13.01751 l -2.36682,-16.4494 v 0.23668 h -14.79262 l -2.36682,16.21272 h -12.07079 z m 14.20092,55.38359 -5.79871,-40.94599 h -0.23668 l -5.68037,40.94599 z"
           id="path1110" /><path
           d="m 319.37667,213.54976 h 13.01751 v 33.72718 h 13.96424 v -33.72718 h 13.01751 v 82.8387 h -13.01751 v -37.27742 h -13.96424 v 37.27742 h -13.01751 z"
           id="path1112" /><path
           d="m 380.68209,213.54976 h 13.01751 v 82.8387 h -13.01751 z"
           id="path1114" /><path
           d="m 425.18303,225.38386 h -13.60922 v -11.8341 h 40.23594 v 11.8341 h -13.60921 v 71.0046 h -13.01751 z"
           id="path1116" /><path
           d="m 474.29943,213.54976 h 17.63281 l 13.49087,82.8387 H 492.4056 l -2.36682,-16.4494 v 0.23668 h -14.79263 l -2.36682,16.21272 h -12.07078 z m 14.20092,55.38359 -5.79871,-40.94599 h -0.23668 l -5.68037,40.94599 z"
           id="path1118" /></g><g
         aria-label="PANCASILA"
         id="text1272"
         style="font-weight:600;font-size:32.7701px;font-family:Poppins;-inkscape-font-specification:'Poppins, Semi-Bold';text-align:justify;letter-spacing:6.22631px;stroke-width:8.19251"
         inkscape:path-effect="#path-effect1301"
         class="UnoptimicedTransforms"
         transform="translate(0.49166018,-4.9276504)"
         inkscape:label="pancasila"><path
           d="m 158.70343,401.44223 c -0.64869,1.18055 -1.53465,2.13473 -2.6622,2.85912 -1.10674,0.7357 -2.42666,1.09223 -3.95838,1.06506 -1.51098,-0.0156 -3.15886,-0.52466 -4.93503,-1.52931 -1.20809,-0.68332 -2.41406,-1.36942 -3.61805,-2.05781 l -4.7954,8.39167 c -1.4541,-0.83285 -2.9038,-1.66848 -4.34938,-2.50608 l 12.5822,-21.78858 c 2.60444,1.49884 5.20905,2.98652 7.81547,4.45808 1.64286,0.92754 2.8777,2.00457 3.70875,3.2383 0.83086,1.23342 1.2486,2.52249 1.25157,3.87006 0.0234,1.35856 -0.32145,2.69262 -1.03955,3.99949 z m -9.73423,-1.25812 c 1.1921,0.67435 2.23099,0.89914 3.11273,0.67667 0.89384,-0.24352 1.62128,-0.8702 2.18471,-1.87798 1.19796,-2.14269 0.62857,-3.86098 -1.69153,-5.17226 -1.13105,-0.63925 -2.26136,-1.28136 -3.39105,-1.92591 l -3.63234,6.35638 c 1.13775,0.65004 2.27687,1.29787 3.41748,1.9431 z"
           id="path1278"
           inkscape:original-d="m 157.47676,392.46858 q 0,1.83512 -0.88479,3.44086 -0.85202,1.60573 -2.71992,2.58883 -1.83512,0.98311 -4.65335,0.98311 h -3.8341 v 8.78238 h -4.58782 v -22.87353 h 8.42192 q 2.65438,0 4.52227,0.91757 1.8679,0.91756 2.78546,2.52329 0.95033,1.60574 0.95033,3.63749 z m -8.45468,3.30978 q 1.90066,0 2.81822,-0.85203 0.91757,-0.88479 0.91757,-2.45775 0,-3.34255 -3.73579,-3.34255 h -3.63748 v 6.65233 z" /><path
           d="m 175.57392,424.36007 c -3.01711,-1.45535 -6.01189,-2.94724 -8.98642,-4.46938 -1.22111,1.17096 -2.4468,2.33864 -3.67684,3.50314 -1.58522,-0.81775 -3.16402,-1.64339 -4.73669,-2.47598 6.6218,-6.00461 13.13432,-12.09331 19.49971,-18.28366 1.66842,0.84683 3.33946,1.68134 5.01355,2.50226 -1.1132,8.80733 -2.04875,17.66045 -2.76574,26.56766 -1.64543,-0.75572 -3.28325,-1.52276 -4.91378,-2.30017 0.1818,-1.68311 0.37063,-3.36439 0.56621,-5.04387 z m 0.53204,-4.22761 c 0.45367,-3.68083 0.93889,-7.35326 1.4529,-11.01786 -2.61517,2.61669 -5.25596,5.21593 -7.91982,7.79889 2.14589,1.09067 4.30126,2.16446 6.46692,3.21897 z"
           id="path1280"
           inkscape:original-d="m 180.97291,403.90534 h -9.11009 l -1.50742,4.35842 h -4.81721 l 8.2253,-22.9063 h 5.34152 l 8.2253,22.9063 h -4.84998 z m -1.24527,-3.67025 -3.30978,-9.56887 -3.30978,9.56887 z" /><path
           d="m 210.25283,443.79898 c -1.67194,-0.5482 -3.33298,-1.11682 -4.98261,-1.70418 -0.53615,-1.99468 -1.0433,-3.98794 -1.52363,-5.97856 -1.13937,-4.75054 -2.14666,-9.49024 -3.03801,-14.22076 l -6.45077,16.00269 c -1.60012,-0.64615 -3.19265,-1.30486 -4.77783,-1.97533 l 9.80462,-23.18727 c 1.45891,0.61671 2.92107,1.22032 4.38676,1.81003 0.82064,4.71001 1.75415,9.42822 2.81673,14.1563 0.44439,1.97802 0.91447,3.95907 1.4124,5.94193 l 5.76498,-16.3309 c 1.47265,0.51487 2.94818,1.01362 4.42609,1.49458 z"
           id="path1282"
           inkscape:original-d="m 216.20074,408.26376 h -4.58781 l -10.38812,-15.69687 v 15.69687 h -4.58782 v -22.9063 h 4.58782 l 10.38812,15.72965 v -15.72965 h 4.58781 z" /><path
           d="m 224.18182,434.75936 c 0.63873,-2.39444 1.73422,-4.39368 3.23086,-6.01868 1.526,-1.64409 3.26636,-2.78127 5.22338,-3.44031 1.98496,-0.67793 4.00906,-0.80739 6.13109,-0.40775 2.48178,0.4674 4.5298,1.51539 6.23697,3.1994 1.70205,1.67895 2.84129,3.80616 3.37588,6.41309 -1.82094,-0.185 -3.63999,-0.41009 -5.45638,-0.67271 -0.37051,-1.26528 -0.99435,-2.26868 -1.87028,-3.01829 -0.85483,-0.74688 -1.89817,-1.23071 -3.14769,-1.4651 -1.33728,-0.25085 -2.59589,-0.15237 -3.79886,0.30374 -1.17489,0.43691 -2.20482,1.19022 -3.08919,2.26968 -0.86125,1.08373 -1.49569,2.44254 -1.88058,4.08056 -0.37966,1.61583 -0.41533,3.11364 -0.0842,4.49733 0.35988,1.36459 1.0345,2.51363 2.02704,3.43485 1.02153,0.90265 2.28872,1.50017 3.78374,1.77589 1.39692,0.25764 2.68048,0.16995 3.82915,-0.25375 1.17808,-0.44388 2.14268,-1.22333 2.89276,-2.32786 1.9423,0.27837 3.89149,0.51792 5.84677,0.71608 -1.10948,2.4674 -2.85632,4.29596 -5.26904,5.4302 -2.37879,1.1112 -5.10916,1.41513 -8.08492,0.86923 -2.52117,-0.4625 -4.6819,-1.46877 -6.43655,-2.97514 -1.72604,-1.52546 -2.89855,-3.39146 -3.53227,-5.56497 -0.61057,-2.16968 -0.56661,-4.45018 0.0724,-6.84549 z"
           id="path1284"
           inkscape:original-d="m 225.83516,396.79423 q 0,-3.37532 1.50743,-6.0297 1.54019,-2.68715 4.1618,-4.1618 2.65438,-1.50743 5.93139,-1.50743 3.8341,0 6.71787,1.96621 2.88377,1.9662 4.03072,5.43984 h -5.27599 q -0.78648,-1.63851 -2.22836,-2.45776 -1.40912,-0.81925 -3.27701,-0.81925 -1.99898,0 -3.57194,0.95033 -1.5402,0.91756 -2.42499,2.62161 -0.85202,1.70404 -0.85202,3.99795 0,2.26114 0.85202,3.99795 0.88479,1.70405 2.42499,2.65438 1.57296,0.91756 3.57194,0.91756 1.86789,0 3.27701,-0.81925 1.44188,-0.85202 2.22836,-2.49053 h 5.27599 q -1.14695,3.5064 -4.03072,5.47261 -2.851,1.93343 -6.71787,1.93343 -3.27701,0 -5.93139,-1.47465 -2.62161,-1.50743 -4.1618,-4.1618 -1.50743,-2.65438 -1.50743,-6.0297 z" /><path
           d="m 274.86059,446.80927 c -3.45965,0.39523 -6.94203,0.65829 -10.44121,0.77808 -0.52687,1.61535 -1.07652,3.22805 -1.64936,4.83783 -0.80261,0.0174 -1.60626,0.0276 -2.41087,0.0305 -1.12184,-0.006 -2.24143,-0.0252 -3.35866,-0.0579 1.19183,-2.83179 2.31381,-5.68113 3.36254,-8.54741 2.02432,-5.53242 3.75897,-11.1048 5.22255,-16.70426 1.71654,-0.0827 3.43478,-0.20957 5.15353,-0.37848 3.46613,8.08345 7.53263,16.00878 12.12569,23.74715 -1.88544,0.31506 -3.78002,0.59405 -5.68285,0.83528 -0.79338,-1.5076 -1.56732,-3.02124 -2.32136,-4.54074 z m -1.8356,-3.85383 c -1.58194,-3.35706 -3.06605,-6.7416 -4.44734,-10.15164 -0.86227,3.5757 -1.82823,7.14286 -2.9023,10.69844 2.45753,-0.11013 4.90817,-0.29382 7.34964,-0.5468 z"
           id="path1286"
           inkscape:original-d="m 272.36868,403.90534 h -9.11009 l -1.50742,4.35842 h -4.81721 l 8.2253,-22.9063 h 5.34152 l 8.2253,22.9063 h -4.84998 z m -1.24526,-3.67025 -3.30978,-9.56887 -3.30978,9.56887 z" /><path
           d="m 302.61803,446.11638 c -1.78791,0.5434 -3.50257,0.71717 -5.11386,0.52998 -1.58754,-0.19396 -2.93652,-0.7461 -4.03887,-1.63761 -1.10367,-0.89258 -1.83304,-2.0904 -2.21502,-3.58123 1.78812,-0.42649 3.56757,-0.88567 5.33743,-1.37581 0.34743,0.97722 0.92212,1.66683 1.73337,2.06206 0.83401,0.38788 1.83259,0.41281 2.97996,0.0647 1.17111,-0.3553 2.00471,-0.91144 2.49583,-1.65112 0.48434,-0.76352 0.57661,-1.58032 0.29049,-2.44865 -0.23343,-0.70846 -0.64606,-1.21842 -1.23207,-1.53377 -0.58643,-0.31556 -1.25112,-0.49368 -1.99605,-0.53777 -0.73234,-0.0746 -1.71304,-0.0968 -2.95887,-0.0827 -1.69444,-0.003 -3.09774,-0.10675 -4.19789,-0.28582 -1.0862,-0.20888 -2.09674,-0.68373 -3.02486,-1.41985 -0.91262,-0.76623 -1.54201,-1.92404 -1.91222,-3.46769 -0.3474,-1.44855 -0.30867,-2.79395 0.0899,-4.03173 0.39897,-1.23913 1.11224,-2.28973 2.13716,-3.16576 1.01969,-0.90015 2.2671,-1.56657 3.76304,-2.01953 2.24315,-0.6792 4.24187,-0.67436 6.0587,0.0512 1.82435,0.69351 3.21936,2.05602 4.1398,4.1273 -1.65488,0.59822 -3.31829,1.17013 -4.98924,1.71383 -0.31145,-0.80975 -0.86615,-1.37516 -1.65508,-1.70467 -0.7756,-0.35965 -1.65976,-0.38464 -2.665,-0.083 -0.87689,0.26313 -1.51301,0.70924 -1.91478,1.3486 -0.37961,0.63225 -0.44612,1.41237 -0.18934,2.33934 0.17981,0.64909 0.52856,1.13937 1.05126,1.46687 0.53831,0.29809 1.14911,0.49893 1.8314,0.59974 0.69468,0.0709 1.65919,0.11247 2.87829,0.10894 1.66265,-0.014 3.04379,0.0322 4.16164,0.16286 1.11404,0.13022 2.17831,0.52209 3.19861,1.17962 1.01903,0.65673 1.80574,1.71495 2.34052,3.18354 0.46086,1.26558 0.55675,2.56333 0.26458,3.89504 -0.29197,1.33082 -0.99349,2.56295 -2.11707,3.67866 -1.13047,1.09213 -2.64601,1.94126 -4.53173,2.51439 z"
           id="path1288"
           inkscape:original-d="m 295.93037,408.49315 q -2.39222,0 -4.32566,-0.81925 -1.90066,-0.81925 -3.01484,-2.35945 -1.11419,-1.54019 -1.14696,-3.63748 h 4.91552 q 0.0983,1.40912 0.9831,2.22837 0.91756,0.81925 2.49053,0.81925 1.60573,0 2.5233,-0.75371 0.91756,-0.78648 0.91756,-2.03175 0,-1.01587 -0.62263,-1.67127 -0.62264,-0.6554 -1.57297,-1.01587 -0.91756,-0.39325 -2.55607,-0.85203 -2.22836,-0.6554 -3.63748,-1.27803 -1.37634,-0.6554 -2.39221,-1.93344 -0.98311,-1.3108 -0.98311,-3.47363 0,-2.03174 1.01588,-3.53917 1.01587,-1.50742 2.85099,-2.2939 1.83513,-0.81926 4.19458,-0.81926 3.53917,0 5.73476,1.73682 2.22837,1.70404 2.45776,4.78443 h -5.04659 q -0.0655,-1.17972 -1.01588,-1.93343 -0.91756,-0.78649 -2.45775,-0.78649 -1.34358,0 -2.16283,0.68818 -0.78648,0.68817 -0.78648,1.99897 0,0.91757 0.58986,1.5402 0.62263,0.58986 1.50742,0.9831 0.91757,0.36047 2.55607,0.85202 2.22837,0.6554 3.63748,1.31081 1.40912,0.6554 2.42499,1.9662 1.01587,1.31081 1.01587,3.44086 0,1.83513 -0.95033,3.40809 -0.95033,1.57297 -2.78546,2.5233 -1.83512,0.91756 -4.35842,0.91756 z" /><path
           d="m 316.74229,413.51931 10.43198,22.86502 c -1.58293,0.72283 -3.17585,1.43087 -4.77914,2.12304 l -9.9375,-23.09256 c 1.43308,-0.61449 2.86118,-1.24668 4.28466,-1.8955 z"
           id="path1290"
           inkscape:original-d="m 318.80386,385.39023 v 22.87353 h -4.58781 v -22.87353 z" /><path
           d="m 340.84253,425.15094 c 2.46507,-1.31447 4.90873,-2.66009 7.33258,-4.03218 l 1.97441,3.4818 c -3.94369,2.23071 -7.94465,4.39497 -12.00953,6.47321 L 326.6759,408.69878 c 1.40383,-0.72093 2.80388,-1.45601 4.20052,-2.20417 z"
           id="path1292"
           inkscape:original-d="m 334.14026,404.62628 h 7.53712 v 3.63748 h -12.12494 v -22.87353 h 4.58782 z" /><path
           d="m 369.58304,407.18446 c -2.7975,1.799 -5.61609,3.58023 -8.45861,5.33541 0.37039,1.65177 0.73557,3.30563 1.09519,4.96163 -1.52257,0.93256 -3.05308,1.85784 -4.59196,2.7746 -1.68019,-8.78511 -3.54219,-17.50603 -5.53195,-26.17435 1.59631,-0.99467 3.19052,-1.99972 4.78319,-3.01348 6.97284,5.52793 14.04231,10.96565 21.15856,16.33697 -1.48174,0.97527 -2.97005,1.94753 -4.46535,2.91554 -1.33212,-1.04273 -2.66192,-2.08811 -3.98907,-3.13632 z m -3.32482,-2.66837 c -2.90362,-2.31182 -5.79321,-4.63782 -8.6654,-6.97962 0.87554,3.60042 1.73096,7.20973 2.56263,10.82874 2.04452,-1.27032 4.07842,-2.55443 6.10277,-3.84912 z"
           id="path1294"
           inkscape:original-d="m 364.84582,403.90534 h -9.11009 l -1.50742,4.35842 h -4.81721 l 8.2253,-22.9063 h 5.34153 l 8.22529,22.9063 h -4.84997 z m -1.24526,-3.67025 -3.30978,-9.56887 -3.30978,9.56887 z" /></g><g
         class="UnoptimicedTransforms"
         aria-label="PELAJAR"
         id="text1229"
         style="font-weight:bold;font-size:34.9477px;font-family:Poppins;-inkscape-font-specification:'Poppins, Bold';text-align:justify;letter-spacing:6.62259px;stroke-width:8.73692"
         inkscape:path-effect="#path-effect1246"
         transform="translate(0,-1.941824)"
         inkscape:label="pemuda"><path
           d="m 180.41817,82.712671 c 0.39502,1.245594 0.45294,2.51191 0.18493,3.79853 -0.24518,1.279433 -0.90475,2.460157 -1.97164,3.550459 -1.04456,1.083092 -2.52596,1.950286 -4.45114,2.621276 -1.30958,0.45643 -2.61616,0.921181 -3.91963,1.393948 l 3.19864,8.809936 c -1.5164,0.54797 -3.02931,1.107 -4.53854,1.67658 l -8.66153,-22.803507 c 2.96817,-1.134285 5.95745,-2.229453 8.96645,-3.282244 1.89687,-0.663681 3.6272,-0.903681 5.17247,-0.728639 1.54602,0.175127 2.82216,0.707133 3.82671,1.585373 1.02848,0.871162 1.7559,1.999102 2.19328,3.378288 z m -7.74377,6.30846 c 1.31363,-0.459296 2.1914,-1.078322 2.63523,-1.869576 0.43589,-0.812501 0.47949,-1.749911 0.12343,-2.811585 -0.75528,-2.252087 -2.4569,-2.949974 -5.10207,-2.023394 -1.28407,0.4498 -2.56472,0.907381 -3.84184,1.37248 l 2.42285,6.673193 c 1.25111,-0.45445 2.50528,-0.901577 3.7624,-1.341118 z"
           style="font-weight:600;-inkscape-font-specification:'Poppins, Semi-Bold'"
           id="path1231"
           inkscape:original-d="m 182.51145,88.470386 q 0,1.957072 -0.94359,3.669509 -0.90864,1.712437 -2.90066,2.760868 -1.95707,1.048431 -4.96257,1.048431 h -4.08888 v 9.365986 h -4.89268 V 80.921683 h 8.98156 q 2.83076,0 4.82278,0.978536 1.99202,0.978535 2.97055,2.690973 1.01349,1.712437 1.01349,3.879194 z m -9.01651,3.529718 q 2.02697,0 3.0055,-0.90864 0.97854,-0.943588 0.97854,-2.621078 0,-3.564665 -3.98404,-3.564665 h -3.87919 v 7.094383 z" /><path
           d="m 194.51389,74.89205 1.54282,5.924516 c 2.7399,-0.713042 5.4903,-1.384685 8.25017,-2.012438 l 0.86143,3.783617 c -2.71967,0.619638 -5.43102,1.282687 -8.13302,1.986655 l 1.63097,6.263059 c 2.9757,-0.776783 5.96086,-1.502548 8.954,-2.173723 l 0.86885,3.889048 c -4.50276,1.011612 -8.99038,2.149267 -13.45755,3.400215 L 188.45024,72.39413 c 4.86368,-1.355625 9.76928,-2.588987 14.71147,-3.68734 l 0.86885,3.889046 c -3.18689,0.709419 -6.35961,1.476014 -9.51667,2.296214 z"
           style="font-weight:600;-inkscape-font-specification:'Poppins, Semi-Bold'"
           id="path1233"
           inkscape:original-d="m 197.48653,84.870773 v 6.115848 h 8.21271 v 3.879194 h -8.21271 v 6.465325 h 9.26114 v 3.98404 H 192.59385 V 80.886735 h 14.15382 v 3.984038 z" /><path
           d="m 223.16809,85.802839 c 2.61664,-0.409934 5.23732,-0.774125 7.86107,-1.090237 l 0.46173,3.844475 c -4.1465,0.500356 -8.28791,1.123946 -12.42016,1.861049 l -4.25172,-23.998538 c 1.72683,-0.304006 3.45753,-0.590691 5.19188,-0.859527 z"
           style="font-weight:600;-inkscape-font-specification:'Poppins, Semi-Bold'"
           id="path1235"
           inkscape:original-d="m 222.70129,101.43598 h 8.03797 v 3.8792 H 217.80861 V 80.921683 h 4.89268 z" /><path
           d="m 255.26511,82.459508 c -3.19564,-0.001 -6.39087,0.07882 -9.58395,0.235384 -0.45162,1.570818 -0.89113,3.14293 -1.31869,4.71625 -1.64985,0.09343 -3.29956,0.207906 -4.94888,0.342806 2.15205,-8.329991 4.63819,-16.628874 7.48187,-24.883279 2.05642,-0.08426 4.11626,-0.140667 6.17919,-0.168394 1.13972,2.821906 2.23655,5.654154 3.28941,8.496436 1.96642,5.314109 3.77878,10.648269 5.44459,15.999409 -1.66317,-0.05061 -3.32615,-0.07952 -4.98876,-0.08603 -0.17049,-0.522544 -0.34239,-1.044919 -0.5157,-1.567123 -0.34075,-1.029687 -0.68713,-2.058177 -1.03908,-3.085455 z m -1.34178,-3.90795 c -1.21152,-3.391064 -2.48348,-6.768656 -3.81413,-10.132276 -1.15575,3.429876 -2.25093,6.867222 -3.28713,10.311144 2.36544,-0.101316 4.73275,-0.161466 7.10126,-0.178868 z"
           style="font-weight:600;-inkscape-font-specification:'Poppins, Semi-Bold'"
           id="path1237"
           inkscape:original-d="m 255.42979,100.66713 h -9.71546 l -1.60759,4.64805 h -5.13732 l 8.77188,-24.428445 h 5.69647 l 8.77187,24.428445 h -5.17226 z m -1.32801,-3.914139 -3.52972,-10.204728 -3.52972,10.204728 z" /><path
           d="m 288.50632,65.140234 -2.40527,16.925829 c -0.33371,2.34836 -1.27437,4.08172 -2.78159,5.215171 -1.50743,1.112855 -3.3543,1.531453 -5.57483,1.28814 -2.24269,-0.24574 -3.99225,-1.080767 -5.2853,-2.542484 -1.26729,-1.456271 -1.83543,-3.386981 -1.65722,-5.797555 1.62895,0.120076 3.25688,0.258729 4.88363,0.41536 -0.077,1.043349 0.0883,1.877194 0.49008,2.500885 0.42516,0.626614 1.0814,0.985256 1.97354,1.082618 0.86929,0.09487 1.56373,-0.104972 2.0883,-0.605079 0.52409,-0.499636 0.84773,-1.233573 0.96493,-2.20294 l 2.05149,-16.967145 c 1.75424,0.211169 3.50505,0.44044 5.25224,0.6872 z"
           style="font-weight:600;-inkscape-font-specification:'Poppins, Semi-Bold'"
           id="path1239"
           inkscape:original-d="m 286.34102,80.921683 v 17.124373 q 0,3.564664 -2.06191,5.556684 -2.06192,1.95707 -5.52174,1.95707 -3.49477,0 -5.66153,-2.02696 -2.13181,-2.02697 -2.13181,-5.661532 h 4.89268 q 0.0349,1.572646 0.7339,2.446342 0.73391,0.87369 2.09687,0.87369 1.32801,0 2.02696,-0.83875 0.69896,-0.83874 0.69896,-2.306544 V 80.921683 Z" /><path
           d="m 312.38974,89.923856 c -3.14498,-0.784423 -6.29825,-1.516586 -9.45853,-2.191788 -0.84544,1.403849 -1.68212,2.810884 -2.50987,4.221076 -1.64331,-0.341905 -3.28792,-0.667832 -4.93363,-0.977087 4.30221,-7.471587 8.87222,-14.851869 13.68091,-22.136651 1.98384,0.434842 3.96198,0.889801 5.93415,1.363929 1.12326,8.652367 1.99237,17.299075 2.63458,25.929012 -1.643,-0.448912 -3.28798,-0.884111 -4.93475,-1.304887 -0.12929,-1.634096 -0.26685,-3.268654 -0.41286,-4.903604 z m -0.36156,-4.124987 c -0.35184,-3.590909 -0.74509,-7.183426 -1.18161,-10.776808 -1.96897,3.039234 -3.89844,6.094226 -5.78647,9.164684 2.32763,0.507976 4.65048,1.045952 6.96808,1.612124 z"
           style="font-weight:600;-inkscape-font-specification:'Poppins, Semi-Bold'"
           id="path1241"
           inkscape:original-d="m 313.61769,100.66713 h -9.71546 l -1.60759,4.64805 h -5.13731 l 8.77187,-24.428445 h 5.69648 l 8.77187,24.428445 h -5.17226 z m -1.32801,-3.914139 -3.52972,-10.204728 -3.52971,10.204728 z" /><path
           d="m 339.04048,102.70738 c -0.6569,-3.576532 -1.35815,-7.158099 -2.10768,-10.742781 -0.7448,-0.243954 -1.49037,-0.485579 -2.23669,-0.724812 l -2.9076,9.066473 c -1.54199,-0.493396 -3.08624,-0.976334 -4.63259,-1.448216 l 7.13604,-23.372091 c 3.10232,0.947695 6.18706,1.936884 9.25315,2.963633 1.89583,0.634862 3.39594,1.510252 4.49605,2.611058 1.10786,1.078885 1.78872,2.274894 2.04831,3.580416 0.29047,1.292285 0.19483,2.595509 -0.27763,3.911214 -0.54335,1.513112 -1.48933,2.719444 -2.8275,3.629102 -1.33067,0.88789 -2.95963,1.252268 -4.89432,1.106402 0.80601,3.764942 1.56005,7.525272 2.2669,11.278582 -1.7686,-0.63177 -3.54083,-1.25174 -5.31644,-1.85898 z m -3.22195,-14.967515 c 1.3363,0.428633 2.66991,0.864866 4.00075,1.308351 1.29656,0.43206 2.36113,0.462332 3.20171,0.08417 0.8474,-0.399894 1.45977,-1.138222 1.83217,-2.218352 0.36483,-1.058192 0.32561,-1.985095 -0.12314,-2.779991 -0.44102,-0.816607 -1.32253,-1.450839 -2.64343,-1.891941 -1.35555,-0.452671 -2.71447,-0.897929 -4.07667,-1.335423 z"
           style="font-weight:600;-inkscape-font-specification:'Poppins, Semi-Bold'"
           id="path1243"
           inkscape:original-d="m 342.88638,105.31518 -5.38195,-9.505777 h -2.30655 v 9.505777 h -4.89267 V 80.921683 h 9.15629 q 2.83077,0 4.82279,1.013483 1.99201,0.978536 2.97055,2.690973 1.01348,1.67749 1.01348,3.774352 0,2.411391 -1.3979,4.368462 -1.39791,1.922124 -4.15878,2.656026 l 5.83627,9.890201 z m -7.6885,-13.175285 h 4.08888 q 1.99202,0 2.97056,-0.943588 0.97853,-0.978536 0.97853,-2.690973 0,-1.67749 -0.97853,-2.58613 -0.97854,-0.943588 -2.97056,-0.943588 h -4.08888 z" /></g></g></g></svg>
